<svg xmlns="http://www.w3.org/2000/svg" width="512" height="512" viewBox="0 0 512 512" version="1.1">
	<path d="M 241.500 34.040 C 199.742 37.145, 152.309 55.624, 117.849 82.212 C 75.234 115.093, 47.269 161.368, 36.093 217.500 C 32.851 233.784, 31.604 248.276, 31.621 269.500 C 31.642 295.161, 34.844 319.960, 38.684 324.203 C 42.352 328.256, 49.401 324.942, 49.214 319.253 C 49.164 317.739, 48.426 312.533, 47.573 307.685 C 44.732 291.527, 43.631 267.921, 44.894 250.204 C 51.572 156.465, 104.334 87.443, 192.570 57.018 C 237.017 41.692, 280.802 42.552, 326.500 59.650 C 337.034 63.591, 359.349 74.904, 369.500 81.449 C 424.160 116.695, 456.257 169.510, 466.159 240.500 C 468.798 259.424, 467.513 293.441, 463.408 313.316 C 461.550 322.307, 463.186 325.950, 469.095 325.985 C 473.447 326.010, 475.037 323.015, 477.106 310.886 C 487.328 250.978, 474.118 184.596, 442.205 135.500 C 425.543 109.866, 399.997 85.112, 372.657 68.108 C 348.980 53.382, 317.058 41.220, 289.973 36.606 C 280.995 35.077, 257.856 32.897, 253.500 33.171 C 252.400 33.240, 247 33.631, 241.500 34.040 M 238 54.009 C 198.311 57.558, 156.323 75.983, 123.451 104.275 C 89.751 133.281, 68.041 170.954, 56.006 221.312 C 51.927 238.383, 49.997 254.655, 50.018 271.801 C 50.062 306.726, 57.071 329.759, 78.721 366.125 C 82.527 372.519, 88.925 385.478, 92.938 394.923 C 101.217 414.409, 101.889 415.252, 121 430.140 C 155.621 457.111, 190.822 472.261, 230.842 477.412 C 287.383 484.689, 344.727 466.972, 395.456 426.555 C 410.011 414.959, 411.467 412.873, 420.975 390 C 423.833 383.125, 429.004 372.775, 432.466 367 C 460.493 320.251, 467.334 284.351, 457.908 233.500 C 447.324 176.406, 425.022 135.729, 386.500 103.255 C 356.721 78.152, 319.130 60.871, 282.863 55.613 C 269.275 53.643, 249.855 52.948, 238 54.009 M 235 83.019 C 207.520 86.836, 175.557 99.357, 154.034 114.736 C 135.827 127.746, 116.626 148.360, 105.633 166.700 C 84.235 202.395, 75.979 255.354, 85.031 298.856 C 92.758 335.994, 112.497 370.915, 138.278 393.058 C 162.787 414.108, 190.940 427.719, 223.426 434.224 C 232.724 436.086, 237.868 436.445, 255.500 436.463 C 273.549 436.481, 278.116 436.158, 288 434.164 C 310.993 429.526, 334.636 420.038, 352.500 408.282 C 386.601 385.841, 407.792 358.184, 420.560 319.456 C 428.128 296.501, 429.506 287.222, 429.462 259.500 C 429.427 237.260, 429.225 234.565, 426.705 222.744 C 414.760 166.709, 383.593 126.016, 333.500 101.052 C 307.918 88.303, 287.089 83.117, 259 82.501 C 249.375 82.289, 238.575 82.523, 235 83.019 M 241 97.599 C 192.646 103.288, 152.037 127.566, 125.857 166.436 C 101.830 202.110, 92.635 252.042, 102.072 295.596 C 112.371 343.133, 143.296 383.463, 185.512 404.414 C 210.266 416.699, 236.061 422.021, 264 420.609 C 285.668 419.514, 304.758 414.345, 325.500 403.957 C 341.287 396.051, 354.171 386.773, 366.471 374.456 C 378.242 362.667, 386.073 352.043, 393.487 337.802 C 406.946 311.953, 412.420 289.666, 412.228 261.500 C 411.771 194.521, 380.058 141.127, 324.042 113.022 C 303.561 102.746, 284.279 98.046, 260.500 97.533 C 251.700 97.343, 242.925 97.373, 241 97.599 M 240.500 109.030 C 205.877 112.926, 174.102 129.042, 149.516 155.176 C 131.592 174.229, 119.243 199.111, 112.877 229 C 111.009 237.768, 110.640 242.634, 110.637 258.500 C 110.635 275.249, 110.949 278.993, 113.293 290.102 C 123.162 336.879, 148.700 371.238, 189.512 392.645 C 199.923 398.106, 215.579 403.815, 227.543 406.513 C 238.326 408.945, 264.550 409.570, 275.500 407.656 C 335.818 397.114, 380.597 356.763, 395.460 299.558 C 404.388 265.197, 400.560 223.565, 385.513 191.365 C 375.051 168.978, 356.103 146.522, 337 133.871 C 319.661 122.389, 298.572 113.679, 280.456 110.520 C 269.493 108.608, 250.533 107.901, 240.500 109.030 M 248.500 138.657 C 235.847 145.306, 230.769 160.131, 237.320 171.292 C 240.577 176.840, 246.548 181.525, 252.404 183.126 C 257.740 184.585, 263.821 183.034, 269.911 178.660 C 283.986 168.550, 281.767 147.147, 265.790 138.912 C 261.241 136.568, 252.715 136.442, 248.500 138.657 M 237.917 190.915 C 226.299 192.550, 215.732 199.776, 209.562 210.303 L 206.847 214.938 212.387 220.346 L 217.927 225.755 222.657 224.872 C 227.590 223.950, 230.984 224.486, 232.235 226.385 C 232.639 226.998, 232.976 237.480, 232.985 249.679 C 232.998 268.521, 232.764 272.093, 231.429 273.429 C 229.205 275.652, 228.576 275.444, 225.561 271.491 C 224.089 269.561, 220.998 266.973, 218.692 265.741 C 214.892 263.710, 213.331 263.525, 202 263.771 C 185.917 264.119, 180.246 265.702, 174.505 271.442 C 168.008 277.939, 166.749 281.082, 166.212 292.139 C 165.576 305.227, 166.664 314.664, 169.089 317.089 C 171.797 319.797, 175.464 319.497, 177.927 316.365 C 179.782 314.008, 180 312.367, 180 300.792 C 180 289.007, 180.156 287.884, 181.750 288.192 C 183.381 288.508, 183.505 291.278, 183.575 328.791 C 183.630 357.907, 183.972 369.372, 184.810 370.210 C 185.448 370.848, 188.634 371.563, 191.889 371.798 C 196.908 372.161, 197.958 371.943, 198.791 370.363 C 199.331 369.338, 200.101 359.837, 200.502 349.250 C 201.085 333.871, 201.510 330, 202.616 330 C 203.734 330, 204.001 332.930, 204.006 345.250 C 204.012 362.125, 204.951 367.266, 208.444 369.555 C 211.878 371.805, 217.509 372.446, 221.031 370.987 C 226.532 368.709, 226.759 367.329, 227.146 333.936 L 227.500 303.372 219.716 294.983 C 211.884 286.542, 211.039 284.634, 214.241 282.618 C 215.691 281.705, 216.523 282.188, 219.229 285.511 C 226.076 293.920, 231.621 299.338, 234.718 300.643 C 238.477 302.228, 267.007 302.521, 273.500 301.041 C 276.536 300.349, 278.585 298.853, 282 294.837 C 284.475 291.927, 288.148 287.743, 290.163 285.539 C 293.772 281.592, 293.856 281.560, 295.883 283.394 C 297.935 285.252, 297.920 285.279, 289.464 294.378 L 280.988 303.500 281.244 335.338 L 281.500 367.175 284.306 369.588 C 288.818 373.467, 295.226 372.732, 300.750 367.701 C 302.923 365.721, 303 365.040, 303 347.752 C 303 331.245, 303.136 329.879, 304.750 330.189 C 306.322 330.490, 306.551 332.455, 307 349.512 C 307.275 359.955, 307.864 369.063, 308.309 369.750 C 309.543 371.656, 321.454 371.403, 323.429 369.429 C 324.804 368.053, 325 362.945, 325 328.488 C 325 300.681, 325.327 288.916, 326.112 288.431 C 328.256 287.105, 328.970 290.605, 328.985 302.527 C 329.002 316.108, 330.041 319, 334.902 319 C 340.422 319, 341.324 316.529, 342.283 298.783 L 343.153 282.680 340.298 277.090 C 338.039 272.667, 336.310 270.822, 332.016 268.250 C 327.068 265.287, 325.862 265, 318.371 265 C 313.851 265, 307.981 264.501, 305.326 263.890 C 298.066 262.220, 292.869 263.976, 287.024 270.072 C 284.425 272.783, 282.039 275, 281.721 275 C 281.403 275, 280.436 274.293, 279.571 273.429 C 277.306 271.163, 277.210 227.901, 279.466 226.028 C 280.369 225.279, 283.185 224.942, 286.805 225.150 C 292.255 225.464, 292.952 225.249, 296.456 222.173 C 298.533 220.349, 301.756 218.130, 303.616 217.243 C 305.477 216.356, 307 215.308, 307 214.914 C 307 214.520, 304.886 211.387, 302.303 207.950 C 297.042 200.952, 288.546 194.871, 280.574 192.400 C 274.757 190.597, 247.034 189.632, 237.917 190.915 M 190.461 218.878 C 181.447 222.973, 175.311 233.801, 176.953 242.717 C 177.902 247.868, 179.213 250.057, 183.877 254.270 C 190.196 259.979, 197.463 261.340, 204.500 258.133 C 212.272 254.590, 217.519 248.492, 219.344 240.883 C 220.473 236.173, 217.394 228.586, 212.324 223.588 C 205.567 216.926, 198.236 215.347, 190.461 218.878 M 305.500 218.841 C 297.663 222.593, 291.977 230.979, 292.022 238.718 C 292.084 249.366, 302.977 260.040, 313.718 259.978 C 322.239 259.929, 331.526 252.337, 334.036 243.370 C 335.126 239.477, 335.071 238.066, 333.651 233.561 C 329.735 221.138, 315.858 213.881, 305.500 218.841" stroke="none" fill="black" fill-rule="evenodd"/>
</svg>